<svg width="79" height="35" viewBox="0 0 79 35" fill="none" xmlns="http://www.w3.org/2000/svg">
<path d="M16.2829 10.7215C17.043 10.4838 17.8538 10.3571 18.695 10.3571C22.3773 10.3571 25.4515 12.8094 26.1541 16.0695L31.3736 15.0715C30.1776 9.53335 24.9549 5.36389 18.695 5.36389C17.2592 5.36389 15.8842 5.5825 14.5938 5.98804L16.2829 10.7215Z" fill="#C8C7C5"/>
<path d="M10.1245 26.5818L13.6548 22.8401C12.0805 21.5316 11.0873 19.6211 11.0873 17.492C11.0873 15.3661 12.0805 13.4556 13.6548 12.1503L10.1245 8.4054C7.44889 10.6295 5.75977 13.877 5.75977 17.492C5.75977 21.1102 7.44889 24.3577 10.1245 26.5818" fill="#969899"/>
<path d="M26.1541 18.9242C25.4481 22.1812 22.3773 24.6303 18.6983 24.6303C17.8538 24.6303 17.0396 24.5035 16.2829 24.2627L14.5938 29.0025C15.8842 29.4049 17.2626 29.6235 18.6983 29.6235C24.9515 29.6235 30.1709 25.4604 31.3736 19.9285L26.1541 18.9242Z" fill="#353434"/>
<path d="M35.9377 22.9954C35.7654 22.7356 35.5357 22.3206 35.3938 22.0132C34.5661 20.2136 34.5289 18.3507 35.2249 16.5638C35.9917 14.6026 37.4579 13.104 39.3531 12.3373C41.7348 11.3773 44.3664 11.5642 46.6501 12.8347C48.0994 13.6141 49.1264 14.8181 49.9068 16.5226C50.0047 16.7412 50.0926 16.9725 50.1804 17.1721L35.9377 22.9954ZM40.6943 15.2299C39.0018 15.9111 38.1302 17.4002 38.3126 19.1428L45.4745 16.2501C44.2414 14.8941 42.6401 14.4442 40.6943 15.2299V15.2299ZM46.3663 21.5221C46.363 21.5221 46.363 21.5253 46.363 21.5253L46.2143 21.4303C45.7853 22.0798 45.1198 22.6089 44.2786 22.951C42.6773 23.6037 41.1942 23.4358 40.1267 22.5582L40.0287 22.6976C40.0287 22.6976 40.0287 22.6944 40.0254 22.6944L38.2079 25.2449C38.6605 25.5395 39.1436 25.7867 39.6504 25.9863C41.6571 26.7688 43.711 26.7308 45.7346 25.9071C47.1974 25.3114 48.346 24.4053 49.1298 23.2552L46.3663 21.5221ZM55.1566 8.58606V22.7609L57.5078 23.6544L56.1734 26.5756L53.5789 25.5617C52.9979 25.3241 52.5992 24.9629 52.3019 24.5542C52.0148 24.1391 51.802 23.5657 51.802 22.799V8.58606H55.1566ZM61.2442 19.1523C61.2442 17.9452 61.8151 16.8616 62.7137 16.1266L60.3017 13.6046C58.6666 14.9606 57.6362 16.9408 57.6362 19.1459C57.6328 21.3542 58.6632 23.3376 60.2949 24.6936L62.7036 22.1716C61.8084 21.4334 61.2442 20.3562 61.2442 19.1523V19.1523ZM65.5278 23.1728C65.0549 23.1728 64.5954 23.0968 64.1698 22.9637L63.0178 26.1732C63.8049 26.4203 64.6461 26.5565 65.5244 26.5565C69.3419 26.5597 72.5276 24.0188 73.2674 20.6445L69.727 19.9665C69.325 21.801 67.5987 23.176 65.5278 23.1728V23.1728ZM65.538 11.748C64.663 11.748 63.8218 11.8811 63.0347 12.125L64.1765 15.3377C64.6056 15.2046 65.0616 15.1317 65.5346 15.1317C67.6088 15.1349 69.3385 16.5163 69.7304 18.3539L73.2708 17.6822C72.5445 14.3016 69.3588 11.7512 65.538 11.748V11.748Z" fill="white"/>
</svg>
